# xmcd
#
# Track frame offsets:
#	150
#	11448
#	26837
#	44579
#	55868
#	65679
#	81729
#	99817
#	114600
#	125698
#	138948
#	153167
#	165469
#
# Disc length: 2373 seconds
# Revision: 0
# Processed by: cddbd v1.5.2PL0 Copyright (c) Steve Scherf et al.
# Submitted via: dBpowerAMP V12.0
#
DISCID=ac09430d
DTITLE=Shane Nicholson - Hell Breaks Loose
DYEAR=2015
DGENRE=Alternative Country
TTITLE0=Weight Of The World
TTITLE1=Hell Breaks Loose
TTITLE2=When The Money's All Gone
TTITLE3=Slow Coach
TTITLE4=Irons and Chains
TTITLE5=One Big Mess
TTITLE6=Secondhand Man
TTITLE7=Hermannsburg
TTITLE8=Bury My Guns
TTITLE9=Single Fathers
TTITLE10=Far Cry
TTITLE11=You And Whose Army?
TTITLE12=Eyes On The Prize?
EXTD=
EXTT0=
EXTT1=
EXTT2=
EXTT3=
EXTT4=
EXTT5=
EXTT6=
EXTT7=
EXTT8=
EXTT9=
EXTT10=
EXTT11=
EXTT12=
PLAYORDER=
